<svg width="20" height="20" viewBox="0 0 20 20" fill="none" xmlns="http://www.w3.org/2000/svg">
                            <path
                                d="M18.1711 8.36788H17.5V8.33329H10V11.6666H14.6906C14.0533 13.6071 12.1844 15 10 15C7.23859 15 5.00001 12.7614 5.00001 10C5.00001 7.23858 7.23859 5 10 5C11.2744 5 12.4467 5.48078 13.3589 6.27892L15.7789 3.85895C14.2789 2.48078 12.2311 1.66667 10 1.66667C5.39763 1.66667 1.66667 5.39763 1.66667 10C1.66667 14.6024 5.39763 18.3333 10 18.3333C14.6024 18.3333 18.3333 14.6024 18.3333 10C18.3333 9.44117 18.2756 8.89475 18.1711 8.36788Z"
                                fill="#FFC107"
                            />
                            <path
                                d="M2.62744 6.12225L5.36622 8.12937C6.10744 6.29506 7.90189 5 10 5C11.2744 5 12.4467 5.48078 13.3589 6.27892L15.7789 3.85895C14.2789 2.48078 12.2311 1.66667 10 1.66667C6.83878 1.66667 4.10744 3.47892 2.62744 6.12225Z"
                                fill="#FF3D00"
                            />
                            <path
                                d="M10 18.3333C12.1844 18.3333 14.1956 17.5476 15.6822 16.2167L13.0311 13.9833C12.1356 14.6443 11.0622 15 10 15C7.82667 15 5.96444 13.6167 5.32 11.6833L2.53778 13.8333C3.99778 16.4333 6.79111 18.3333 10 18.3333Z"
                                fill="#4CAF50"
                            />
                            <path
                                d="M18.1711 8.36788H17.5V8.33329H10V11.6666H14.6906C14.3956 12.5833 13.8289 13.3833 13.0311 13.9833L13.0322 13.9822L15.6833 16.2156C15.5056 16.3789 18.3333 14.1666 18.3333 10C18.3333 9.44117 18.2756 8.89475 18.1711 8.36788Z"
                                fill="#1976D2"
                            />
                        </svg>